<svg fill="#f8f8f8" height="50px" width="50px" viewBox="0 -12 512 512" xmlns="http://www.w3.org/2000/svg"><g fill-rule="evenodd"><path d="m282.972656 103.472656c-27.488281 0-53.410156 10.1875-73.464844 28.757813-.035156.035156-.074218.0625-.109374.09375-.039063.035156-.070313.074219-.109376.109375-.960937.898437-1.914062 1.804687-2.851562 2.742187-20.441406 20.441407-31.699219 47.621094-31.699219 76.53125 0 28.40625 10.875 55.136719 30.644531 75.449219.039063.042969.070313.089844.113282.128906.039062.042969.082031.078125.125.117188.273437.277344.539062.5625.816406.839844 20.445312 20.441406 47.625 31.703124 76.535156 31.703124s56.089844-11.261718 76.535156-31.703124c42.199219-42.199219 42.199219-110.867188 0-153.066407-20.445312-20.441406-47.625-31.703125-76.535156-31.703125zm-66.914062 50.75 30.164062 32.546875c-4.84375 7.113281-7.683594 15.703125-7.683594 24.9375 0 8.441407 2.367188 16.335938 6.46875 23.0625l-31.765624 30.988281c-11.988282-15.402343-18.507813-34.21875-18.507813-54.050781 0-21.328125 7.542969-41.488281 21.324219-57.484375zm42.484375 57.484375c0-13.46875 10.957031-24.429687 24.429687-24.429687 13.46875 0 24.429688 10.960937 24.429688 24.429687 0 13.472657-10.957032 24.433594-24.429688 24.433594s-24.429687-10.960937-24.429687-24.433594zm86.820312 62.394531c-16.664062 16.664063-38.824219 25.84375-62.390625 25.84375-20.574218 0-40.070312-6.996093-55.777344-19.859374l31.792969-31.007813c6.921875 4.460937 15.152344 7.0625 23.984375 7.0625 24.5 0 44.429688-19.933594 44.429688-44.429687 0-24.5-19.929688-44.429688-44.429688-44.429688-8.03125 0-15.566406 2.152344-22.078125 5.898438l-30.1875-32.574219c15.058594-11.121094 33.199219-17.132813 52.265625-17.132813 23.570313 0 45.726563 9.179688 62.394532 25.84375 34.398437 34.402344 34.398437 90.378906-.003907 124.785156zm0 0"/><path d="m500.972656 376.386719-78.730468-78.730469c8.632812-13.976562 15.144531-29.214844 19.242187-45.214844 1.371094-5.351562-1.855469-10.800781-7.207031-12.167968-5.351563-1.371094-10.796875 1.855468-12.167969 7.207031-5.15625 20.144531-14.679687 38.925781-27.816406 55.019531-.039063.046875-.078125.097656-.117188.144531-1.902343 2.324219-3.882812 4.585938-5.933593 6.792969-.230469.246094-.457032.492188-.6875.738281-.988282 1.046875-1.984376 2.085938-3.007813 3.105469v.003906c-.808594.808594-1.625 1.601563-2.445313 2.386719-.351562.332031-.710937.660156-1.066406.992187-.460937.4375-.925781.871094-1.394531 1.296876-.476563.433593-.957031.859374-1.4375 1.289062-.347656.304688-.691406.617188-1.042969.917969-.558594.488281-1.121094.964843-1.683594 1.441406-.273437.230469-.546874.460937-.820312.6875-.625.523437-1.257812 1.035156-1.890625 1.546875-.210937.167969-.417969.335938-.628906.503906-.695313.550782-1.394531 1.09375-2.09375 1.632813-.144531.105469-.285157.214843-.425781.320312-.773438.589844-1.550782 1.167969-2.335938 1.738281-.046875.035157-.09375.066407-.136719.101563-.851562.617187-1.703125 1.222656-2.5625 1.816406l-.539062.371094c-23.695313 16.269531-51.710938 25.03125-81.070313 25.03125-38.371094 0-74.445312-14.945313-101.578125-42.078125-56.007812-56.007812-56.007812-147.140625 0-203.148438 56.011719-56.007812 147.140625-56.007812 203.152344 0 17.546875 17.546876 30.292969 39.390626 36.863281 63.167969 1.46875 5.324219 6.976563 8.445313 12.300782 6.976563 5.324218-1.472656 8.445312-6.980469 6.976562-12.304688-7.488281-27.101562-22.011719-51.992187-42-71.980468-59.941406-59.941407-155.195312-63.566407-219.414062-10.886719l-14.585938-15.734375c4.84375-7.117188 7.683594-15.703125 7.683594-24.941406 0-24.5-19.933594-44.429688-44.429688-44.429688-24.5 0-44.429687 19.929688-44.429687 44.429688s19.929687 44.429687 44.429687 44.429687c8.03125 0 15.566406-2.152344 22.074219-5.898437l14.59375 15.746093c-58.363281 61.09375-60.210937 156.628907-5.546875 219.902344l-90.648438 88.421875c-6.921874-4.460938-15.152343-7.058594-23.984374-7.058594-24.5 0-44.429688 19.929688-44.429688 44.429688 0 24.496094 19.929688 44.429687 44.429688 44.429687s44.429687-19.933593 44.429687-44.429687c0-8.441406-2.367187-16.335938-6.46875-23.0625l90.636719-88.414063c30.164062 27.421875 68.902344 42.429688 109.945312 42.429688 30.851563 0 60.394532-8.488281 85.976563-24.34375l78.699219 78.699219c7.101562 7.101562 16.570312 11.011718 26.664062 11.011718 10.089844 0 19.5625-3.910156 26.660156-11.011718 14.703125-14.699219 14.703125-38.621094 0-53.324219zm-397.460937-331.957031c0-13.46875 10.957031-24.429688 24.429687-24.429688 13.46875 0 24.429688 10.960938 24.429688 24.429688 0 13.472656-10.960938 24.429687-24.429688 24.429687-13.472656 0-24.429687-10.957031-24.429687-24.429687zm-59.082031 424.402343c-13.472657 0-24.429688-10.960937-24.429688-24.429687 0-13.472656 10.957031-24.433594 24.429688-24.433594 13.46875 0 24.429687 10.960938 24.429687 24.433594 0 13.46875-10.960937 24.429687-24.429687 24.429687zm442.402343-53.261719c-3.324219 3.320313-7.769531 5.152344-12.519531 5.152344-4.753906 0-9.199219-1.832031-12.523438-5.152344l-76.292968-76.296874c.039062-.03125.078125-.0625.117187-.09375.988281-.800782 1.96875-1.613282 2.941407-2.4375.171874-.144532.34375-.285157.511718-.429688.894532-.765625 1.777344-1.542969 2.65625-2.324219.226563-.199219.449219-.394531.671875-.59375.839844-.757812 1.671875-1.53125 2.5-2.308593.234375-.21875.472657-.433594.707031-.65625 1.039063-.988282 2.066407-1.988282 3.085938-3.003907.023438-.023437.046875-.050781.070312-.074219 1.167969-1.167968 2.3125-2.359374 3.445313-3.5625.335937-.355468.660156-.71875.996094-1.078124.847656-.917969 1.6875-1.84375 2.515625-2.78125.308594-.351563.621094-.707032.929687-1.0625.9375-1.082032 1.859375-2.175782 2.769531-3.277344.144532-.175782.292969-.351563.433594-.523438.226563-.28125.464844-.550781.6875-.832031l76.296875 76.292969c6.902344 6.90625 6.90625 18.140625 0 25.042968zm0 0"/><path d="m426.613281 210.25c0 5.507812 4.492188 10 10 10 5.507813 0 10-4.492188 10-10s-4.492187-10-10-10c-5.507812 0-10 4.492188-10 10zm0 0"/></g></svg>
